<svg width="40" height="40" viewBox="0 0 40 40" fill="none" xmlns="http://www.w3.org/2000/svg">
    <path d="M26.1785 8.82166L21.1785 3.82166C20.866 3.5092 20.4421 3.33368 20.0002 3.33368C19.5582 3.33368 19.1344 3.5092 18.8219 3.82166L13.8219 8.82166C13.5183 9.13599 13.3503 9.557 13.3541 9.99399C13.3579 10.431 13.5331 10.849 13.8422 11.158C14.1512 11.467 14.5692 11.6423 15.0062 11.6461C15.4432 11.6499 15.8642 11.4819 16.1785 11.1783L18.3335 9.02332V28.3333C18.3335 28.7754 18.5091 29.1993 18.8217 29.5118C19.1342 29.8244 19.5582 30 20.0002 30C20.4422 30 20.8661 29.8244 21.1787 29.5118C21.4913 29.1993 21.6669 28.7754 21.6669 28.3333V9.02332L23.8219 11.1783C24.1362 11.4819 24.5572 11.6499 24.9942 11.6461C25.4312 11.6423 25.8492 11.467 26.1582 11.158C26.4672 10.849 26.6425 10.431 26.6463 9.99399C26.6501 9.557 26.4821 9.13599 26.1785 8.82166Z" fill="#8EC549"/>
    <path d="M30 15H21.6667V28.3333C21.6667 28.7754 21.4911 29.1993 21.1785 29.5118C20.8659 29.8244 20.442 30 20 30C19.558 30 19.134 29.8244 18.8215 29.5118C18.5089 29.1993 18.3333 28.7754 18.3333 28.3333V15H10C8.67432 15.0013 7.40332 15.5285 6.46593 16.4659C5.52853 17.4033 5.00132 18.6743 5 20V31.6667C5.00132 32.9923 5.52853 34.2633 6.46593 35.2007C7.40332 36.1381 8.67432 36.6653 10 36.6667H30C31.3257 36.6653 32.5967 36.1381 33.5341 35.2007C34.4715 34.2633 34.9987 32.9923 35 31.6667V20C34.9987 18.6743 34.4715 17.4033 33.5341 16.4659C32.5967 15.5285 31.3257 15.0013 30 15Z" fill="#C7E99C"/>
</svg>